<svg width="22" height="22" viewBox="0 0 22 22" fill="none" xmlns="http://www.w3.org/2000/svg">
<path d="M21.9993 11.0372C21.9993 9.95454 20.9857 9.30512 20.1772 8.81805C19.9266 8.67599 19.6851 8.51667 19.4546 8.34216C19.5355 8.04891 19.6406 7.76275 19.7679 7.48674C20.1236 6.6212 20.5764 5.54966 19.9407 4.67294C19.3051 3.79623 18.1409 3.88247 17.2031 3.96975H17.202C16.9039 3.99005 16.6048 3.99005 16.3077 3.96975C16.2319 3.77493 16.1349 3.3741 16.0702 3.11434C15.865 2.19398 15.5962 1.04737 14.5503 0.711487C13.5043 0.375608 12.6635 1.13361 11.9632 1.73939C11.7318 1.97074 11.4831 2.18484 11.2194 2.37865C10.9576 2.20209 10.709 2.00625 10.4756 1.79417C9.77526 1.18839 8.90212 0.430393 7.88849 0.766272C6.87487 1.10114 6.57373 2.22645 6.36857 3.14681C6.30389 3.40658 6.20688 3.8074 6.13108 4.00222C5.83398 4.02252 5.53483 4.02252 5.23672 4.00222C4.2989 3.91597 3.14583 3.81856 2.49905 4.70541C1.85228 5.5933 2.31614 6.65367 2.67186 7.51922H2.67085C2.79819 7.79522 2.90329 8.08138 2.98412 8.37463C2.75371 8.54916 2.51219 8.70848 2.26155 8.85052C1.45308 9.30512 0.439453 9.95454 0.439453 11.0372C0.439453 12.12 1.45308 12.7694 2.26155 13.2564C2.51217 13.3985 2.75369 13.5578 2.98412 13.7323C2.90328 14.0256 2.79818 14.3117 2.67085 14.5878C2.31513 15.4533 1.86238 16.5248 2.49804 17.4016C3.13369 18.2783 4.29789 18.192 5.23571 18.1047H5.23672C5.53483 18.0844 5.83398 18.0844 6.13108 18.1047C6.20688 18.2996 6.30389 18.7004 6.36857 18.9602C6.57372 19.8805 6.84253 21.0271 7.88849 21.363C8.93446 21.6989 9.77526 20.9409 10.4756 20.2803C10.709 20.0682 10.9576 19.8724 11.2194 19.6958C11.4811 19.8724 11.7297 20.0682 11.9632 20.2803C12.5109 20.8719 13.2466 21.2544 14.044 21.363C14.2158 21.36 14.3866 21.3305 14.5503 21.2768C15.6286 20.9409 15.865 19.7943 16.0702 18.8739C16.1349 18.6141 16.2319 18.2133 16.3077 18.0185C16.6048 17.9972 16.9039 17.9972 17.202 18.0185C18.1399 18.1047 19.2929 18.2022 19.9397 17.3153C20.5865 16.4274 20.1226 15.367 19.7669 14.5015L19.7679 14.5005C19.6406 14.2245 19.5355 13.9393 19.4546 13.6461C19.6851 13.4705 19.9266 13.3122 20.1772 13.1692C20.9857 12.7694 21.9993 12.1199 21.9993 11.0373V11.0372ZM15.2941 9.00275L10.9819 14.4142C10.7929 14.6557 10.511 14.8049 10.2058 14.8252H10.1411C9.85508 14.8272 9.57919 14.7146 9.37608 14.5116L7.2205 12.3473C6.79707 11.9221 6.79707 11.2341 7.2205 10.81C7.64293 10.3858 8.32809 10.3858 8.75054 10.81L10.0552 12.12L13.6125 7.66027C13.9965 7.25134 14.6291 7.20568 15.0667 7.55575C15.5053 7.90584 15.6043 8.53394 15.2941 9.00274L15.2941 9.00275Z" fill="#51C878"/>
</svg>
